<?xml version="1.0" standalone="no"?>
<!DOCTYPE svg PUBLIC "-//W3C//DTD SVG 20010904//EN"
 "http://www.w3.org/TR/2001/REC-SVG-20010904/DTD/svg10.dtd">
<svg version="1.0" xmlns="http://www.w3.org/2000/svg"
 width="260.000000pt" height="260.000000pt" viewBox="0 0 260.000000 260.000000"
 preserveAspectRatio="xMidYMid meet">
<metadata>
Created by potrace 1.14, written by Peter Selinger 2001-2017
</metadata>
<g transform="translate(0.000000,260.000000) scale(0.100000,-0.100000)"
fill="#000000" stroke="none">
<path d="M270 2520 c0 -30 -1 -30 -55 -30 -52 0 -55 -1 -55 -25 0 -20 -5 -25
-25 -25 -21 0 -25 -5 -25 -30 0 -27 -3 -30 -30 -30 -30 0 -30 -1 -30 -55 0
-52 -1 -55 -25 -55 l-25 0 0 -975 0 -975 25 0 c23 0 25 -3 25 -50 0 -49 1 -50
30 -50 27 0 30 -3 30 -30 0 -25 4 -30 25 -30 20 0 25 -5 25 -25 0 -24 3 -25
55 -25 54 0 55 0 55 -30 l0 -30 110 0 110 0 0 -25 0 -25 810 0 810 0 0 25 0
25 110 0 110 0 0 30 c0 30 1 30 55 30 52 0 55 1 55 25 0 20 5 25 25 25 21 0
25 5 25 30 0 27 3 30 30 30 29 0 30 1 30 50 0 47 2 50 25 50 l25 0 0 975 0
975 -25 0 c-24 0 -25 3 -25 55 0 54 0 55 -30 55 -27 0 -30 3 -30 30 0 25 -4
30 -25 30 -20 0 -25 5 -25 25 0 24 -3 25 -55 25 -54 0 -55 0 -55 30 l0 30
-1030 0 -1030 0 0 -30z m1630 -545 c0 -20 5 -25 25 -25 l25 0 0 -110 0 -110
-110 0 -110 0 0 110 0 110 30 0 c25 0 30 4 30 25 0 24 3 25 55 25 52 0 55 -1
55 -25z m-650 -160 c0 -84 0 -85 25 -85 25 0 25 -1 25 -80 0 -79 0 -80 25 -80
25 0 25 -1 25 -80 l0 -80 30 0 30 0 0 -80 c0 -79 0 -80 25 -80 24 0 25 -3 25
-55 0 -54 0 -55 30 -55 l30 0 0 -85 c0 -84 0 -85 25 -85 l25 0 0 -105 0 -105
-110 0 -110 0 0 55 c0 52 -1 55 -25 55 -25 0 -25 1 -25 80 l0 80 -215 0 -215
0 0 -30 c0 -27 -3 -30 -30 -30 l-30 0 0 -80 c0 -79 0 -80 -25 -80 -20 0 -25
-5 -25 -25 l0 -25 -110 0 -110 0 0 55 c0 54 0 55 30 55 l30 0 0 80 c0 79 0 80
25 80 25 0 25 1 25 80 0 79 0 80 25 80 25 0 25 1 25 80 l0 80 30 0 30 0 0 85
c0 84 0 85 25 85 25 0 25 1 25 80 l0 80 30 0 30 0 0 80 c0 79 0 80 25 80 21 0
25 5 25 30 l0 30 165 0 165 0 0 -85z m700 -625 l0 -430 -110 0 -110 0 0 430 0
430 110 0 110 0 0 -430z"/>
<path d="M1030 1600 c0 -79 0 -80 -25 -80 -25 0 -25 -1 -25 -85 l0 -85 -30 0
c-25 0 -30 -4 -30 -25 0 -21 5 -25 30 -25 25 0 30 -4 30 -25 l0 -25 105 0 105
0 0 50 c0 47 -2 50 -25 50 -25 0 -25 1 -25 85 l0 85 -30 0 -30 0 0 80 c0 79 0
80 -25 80 -25 0 -25 -1 -25 -80z"/>
</g>
</svg>
